<svg width="221" height="221" viewBox="0 0 221 221" fill="none" xmlns="http://www.w3.org/2000/svg">
<path fill-rule="evenodd" clip-rule="evenodd" d="M162 13H59C33.5949 13 13 33.5949 13 59V162C13 187.405 33.5949 208 59 208H162C187.405 208 208 187.405 208 162V59C208 33.5949 187.405 13 162 13ZM59 0C26.4152 0 0 26.4152 0 59V162C0 194.585 26.4152 221 59 221H162C194.585 221 221 194.585 221 162V59C221 26.4152 194.585 0 162 0H59Z" fill="black"/>
<path d="M110 122.364L30.9163 31.0196L19.9798 18C13.1458 18 9.48559 26.0899 13.974 31.2742L103.994 135.25C107.169 138.917 112.831 138.917 116.006 135.25L206.026 31.2742C210.274 26.3681 207.224 18.8598 201.092 18.0682L189.084 31.0196L110 122.364Z" fill="black"/>
<path fill-rule="evenodd" clip-rule="evenodd" d="M147.205 93.0149L218.705 168.015L209.295 176.985L137.795 101.985L147.205 93.0149ZM1.1402 173.684L72.6402 93.1835L82.3598 101.816L10.8598 182.316L1.1402 173.684Z" fill="black"/>
</svg>
